<svg width="60" height="72" viewBox="0 0 60 72" fill="none" xmlns="http://www.w3.org/2000/svg">
<path d="M15.9476 37.3456C11.6979 27.96 5.51318 26.3957 2.13499 33.8545C-1.24321 41.3236 -0.535707 54.9876 3.71397 64.3732C7.96366 73.7691 16.0835 71.0446 17.5266 67.8643C18.6933 65.2848 20.202 46.7312 15.9476 37.3456ZM48.7222 8.13218C42.8982 -4.73415 32.2435 -2.04071 24.9202 14.1406C17.5969 30.3219 19.7147 61.255 22.2027 66.7455C24.2127 71.1896 38.6813 76.9184 46.0046 60.737C46.5247 59.5871 47.0073 58.4062 47.4665 57.1838C47.5742 55.5677 47.9772 53.5373 48.6847 51.0717C48.2771 51.5379 47.8273 51.8591 47.3447 52.0455C46.9839 53.5062 46.4216 55.0808 45.6532 56.7694C44.7677 58.6237 44.1351 59.8358 43.7556 60.3952C43.3761 60.9546 43.0106 61.2343 42.6639 61.2343C41.7924 61.2343 41.3801 59.5353 41.4317 56.1271C40.8788 57.8675 40.3681 59.1624 39.9042 59.9912C39.4357 60.8199 38.9578 61.2343 38.4564 61.2343C37.9551 61.2343 37.5568 60.737 37.2195 59.7218C36.9524 58.9345 36.7931 57.9918 36.7369 56.9144C36.0668 58.3647 35.4577 59.4421 34.9189 60.1362C34.3613 60.8613 33.7476 61.2239 33.0729 61.2239C32.3232 61.2239 31.7141 60.6956 31.2549 59.6286C30.9129 58.8413 30.702 57.8778 30.613 56.728V56.7487C29.8633 58.2715 29.2027 59.4007 28.6358 60.1258C28.0688 60.851 27.53 61.2136 27.0146 61.2136C26.4242 61.2136 25.9463 60.7059 25.5855 59.6907C25.2248 58.6755 25.042 57.3184 25.042 55.6091C25.042 53.0504 25.295 49.9737 25.7964 46.3893C26.2977 42.805 26.9068 39.49 27.6284 36.465L29.7321 34.7454C29.7977 34.6936 29.8493 34.6729 29.8821 34.6729C30.0414 34.6729 30.1726 34.9319 30.2757 35.4498C30.3787 35.9678 30.4303 36.6722 30.4303 37.5424C30.4303 40.0287 30.1726 42.4424 29.6525 44.7733C29.1324 47.1041 28.3218 49.5904 27.2161 52.2424C27.1739 53.5166 27.1505 54.3867 27.1505 54.8633C27.1505 55.9303 27.2395 56.7694 27.4175 57.391C27.5956 58.0125 27.8299 58.3233 28.1204 58.3233C28.5561 58.3233 28.7342 58.085 29.0715 57.6085C29.4042 57.1423 29.9055 56.1789 30.5755 54.7182C30.6458 52.4185 31.0441 50.3051 31.7797 48.4094C32.5903 46.3168 33.4899 45.2705 34.4785 45.2705C34.9939 45.2705 35.4015 45.5606 35.7108 46.151C36.02 46.7415 36.1746 47.5081 36.1746 48.4612C36.1746 50.9889 34.9611 53.04 32.5293 54.6147C32.7496 56.9973 33.3259 58.1886 34.2583 58.1886C34.6237 58.1886 34.9705 57.9711 35.3031 57.536C35.6264 57.1113 36.1043 56.1996 36.7369 54.7908C36.8165 53.4026 37.032 52.0559 37.3834 50.7713C37.8379 49.1138 38.4236 47.7671 39.1358 46.7415C39.848 45.716 40.4758 45.198 41.024 45.198C41.7128 45.198 42.2001 45.9024 42.4718 47.3009L44.1633 45.2291H44.6271L43.8962 50.5952C43.5214 53.2886 43.3339 55.143 43.3339 56.1375C43.3339 57.132 43.5026 57.7121 43.84 57.7121C44.0555 57.7121 44.2898 57.4635 44.5521 56.9559C44.8005 56.469 45.1519 55.7335 45.597 54.7493C45.9718 53.8584 46.3186 52.9157 46.6278 51.9109C46.1499 51.4447 45.9156 50.761 45.9156 49.839C45.9156 48.917 46.0609 47.8914 46.3514 46.8244C46.6418 45.7574 47.0401 45.2291 47.5461 45.2291C47.9772 45.2291 48.1927 45.716 48.1927 46.6897C48.1927 47.4563 48.0709 48.5544 47.8179 49.984C48.7362 49.7665 49.5374 48.2126 50.2215 45.3327L50.7884 45.2809C53.4357 31.8137 52.8594 17.2588 48.7175 8.10111L48.7222 8.13218ZM35.3359 38.3919C35.2516 38.6819 35.1298 38.8995 34.9658 39.0549C34.8065 39.2103 34.6237 39.2931 34.4223 39.2931C34.0849 39.2931 33.8319 39.1378 33.6538 38.827C33.4758 38.5162 33.3633 38.0604 33.3165 37.4492L33.7522 37.2938C33.7757 37.6771 33.8459 37.9775 33.9537 38.1743C34.0662 38.3815 34.2208 38.4851 34.4223 38.4851C34.6237 38.4851 34.7737 38.3919 34.8721 38.2158C34.9705 38.0397 35.0173 37.8221 35.0173 37.5735C35.0173 37.3559 34.9751 37.1798 34.8861 37.0555C34.8252 36.9726 34.6753 36.8587 34.4363 36.724C34.113 36.5479 33.8928 36.3925 33.7663 36.2579C33.6398 36.1232 33.5461 35.9471 33.4852 35.7088C33.4196 35.4809 33.3868 35.2219 33.3868 34.9422C33.3868 34.6832 33.4149 34.4553 33.4664 34.2378C33.518 34.0202 33.5929 33.8441 33.682 33.6991C33.7522 33.5851 33.8413 33.4919 33.9584 33.4194C34.0755 33.3469 34.202 33.3054 34.3379 33.3054C34.5394 33.3054 34.7174 33.3676 34.8721 33.5023C35.0267 33.6266 35.1391 33.8027 35.2141 34.0306C35.2891 34.2481 35.3359 34.5486 35.364 34.9215L34.933 35.0458C34.9142 34.7557 34.858 34.5175 34.7643 34.3517C34.6706 34.186 34.5394 34.1031 34.366 34.1031C34.1646 34.1031 34.0193 34.1756 33.935 34.3207C33.8506 34.4657 33.8038 34.6418 33.8038 34.8386C33.8038 34.9629 33.8225 35.0769 33.8553 35.1805C33.8928 35.2841 33.949 35.3669 34.024 35.4395C34.0662 35.4705 34.1974 35.5534 34.4129 35.6881C34.7221 35.8746 34.9377 36.0196 35.0642 36.1335C35.186 36.2475 35.2844 36.4236 35.3547 36.6411C35.4249 36.8587 35.4577 37.1384 35.4577 37.4699C35.4577 37.8014 35.4156 38.1018 35.3312 38.3815L35.3359 38.3919ZM37.7442 38.7337C37.5521 39.1067 37.3132 39.2931 37.0274 39.2931C36.6713 39.2931 36.3901 39.0342 36.1746 38.5266C35.9591 38.0189 35.8513 37.2834 35.8513 36.3304C35.8513 35.7088 35.8982 35.1701 35.9919 34.7039C36.0856 34.2378 36.2261 33.8959 36.4136 33.6577C36.601 33.4297 36.8071 33.3054 37.032 33.3054C37.3132 33.3054 37.5428 33.4608 37.7208 33.7716C37.8988 34.0824 38.016 34.5278 38.0628 35.108L37.6365 35.253C37.5943 34.8697 37.524 34.5796 37.4209 34.3828C37.3178 34.186 37.1913 34.0927 37.0461 34.0927C36.8259 34.0927 36.6478 34.2689 36.5073 34.6211C36.3667 34.9733 36.3011 35.5223 36.3011 36.2786C36.3011 37.0348 36.3667 37.6046 36.5026 37.9568C36.6338 38.309 36.8118 38.4748 37.0227 38.4748C37.196 38.4748 37.3366 38.3608 37.4537 38.1225C37.5709 37.8946 37.6411 37.5321 37.6739 37.0452L38.105 37.1695C38.0581 37.8221 37.9363 38.3401 37.7442 38.713V38.7337ZM38.9249 39.1585H38.4845V33.4401H38.9249V39.1585ZM38.9249 32.3731H38.4845V31.2543H38.9249V32.3731ZM41.1974 39.1585L40.3399 36.2371L40.0307 36.8898V39.1585H39.5903V31.2646H40.0307V35.771L41.0709 33.4401H41.6378L40.6492 35.5638L41.7409 39.1585H41.1974ZM42.528 39.1585H42.0876V33.4401H42.528V39.1585ZM42.528 32.3731H42.0876V31.2543H42.528V32.3731ZM43.8868 39.231C43.7275 39.231 43.6057 39.1792 43.5167 39.0652C43.4353 38.97 43.3709 38.8167 43.3339 38.6301C43.2965 38.4437 43.2824 38.0707 43.2824 37.4906V34.1963H42.9591V33.4401H43.2824V32.0209L43.7181 31.4408V33.4401H44.1586V34.1963H43.7181V37.5424C43.7181 37.8221 43.7275 37.9982 43.7416 38.0707C43.7556 38.1536 43.7837 38.2158 43.8165 38.2572C43.8493 38.309 43.9009 38.3297 43.9665 38.3297C44.0133 38.3297 44.0789 38.3194 44.1586 38.2883L44.2242 39.1481C44.1023 39.2103 43.9899 39.231 43.8915 39.231H43.8868ZM41.68 47.2906C41.8159 47.6739 41.8861 48.2126 41.8861 48.8963C41.8861 50.6574 41.6425 52.5738 41.1552 54.6561C40.6679 56.7383 40.1432 57.7743 39.595 57.7743C39.3701 57.7743 39.1826 57.5671 39.0374 57.1631C38.8922 56.759 38.8172 56.2203 38.8172 55.5573C38.8172 53.817 39.0655 51.9005 39.5575 49.8286C40.0495 47.7567 40.5742 46.7208 41.1271 46.7208C41.3567 46.7208 41.5441 46.9073 41.68 47.3009V47.2906ZM34.5909 48.513C34.5909 50.8853 33.8834 52.5013 32.4684 53.3819C32.4684 51.4136 32.6324 49.8183 32.9651 48.5959C33.2978 47.3631 33.6445 46.7519 34.0099 46.7519C34.3941 46.7519 34.5909 47.3424 34.5909 48.513ZM29.8024 38.2987C29.8024 39.8422 29.5869 41.6758 29.1465 43.8202C28.7107 45.9542 28.1391 47.8914 27.441 49.6111C27.8158 45.5606 28.2 42.4217 28.5889 40.1737C28.9778 37.9257 29.2777 36.7965 29.4791 36.7965C29.5728 36.7965 29.6525 36.9312 29.7134 37.2109C29.7743 37.4803 29.8024 37.8532 29.8024 38.2987ZM59.9813 54.6664V56.7694C58.7068 59.7529 57.6104 61.2343 56.7015 61.2343C56.3313 61.2343 56.0314 60.9442 55.8065 60.3745C55.5816 59.8047 55.4645 59.0277 55.4645 58.0643C55.4645 56.759 55.7081 54.7597 56.1954 52.0766C56.4531 50.6366 56.5843 49.7147 56.5843 49.3314C56.5843 48.9481 56.514 48.7409 56.3782 48.7409C56.3032 48.7409 56.2001 48.8238 56.0736 48.9999C55.9565 49.1656 55.8206 49.4142 55.666 49.7147C55.5301 49.9944 55.3755 50.3362 55.2021 50.7402C55.0522 51.0821 54.8929 51.4758 54.7242 51.9109L54.2603 53.1022C54.0542 53.6512 53.9277 54.2313 53.8808 54.8425C53.7965 55.8785 53.745 56.8315 53.7168 57.7017C53.6981 58.344 53.6934 59.2142 53.6934 60.3227L51.8614 61.2757C51.8005 59.6286 51.7724 58.4062 51.7724 57.5981C51.7724 57.3702 51.7771 57.1527 51.7818 56.9248C50.4324 59.815 49.3875 61.2757 48.6519 61.2757C48.3145 61.2757 48.0287 60.9649 47.7991 60.333C47.5696 59.7011 47.4524 58.9241 47.4524 58.0022C47.4524 57.7432 47.4665 57.4738 47.4852 57.1941C48.8908 53.4648 50.006 49.4453 50.8166 45.3119L51.004 45.2912L50.2356 49.9737C49.917 51.9523 49.7061 53.299 49.6124 54.0138C49.5187 54.7286 49.4718 55.3605 49.4718 55.9096C49.4718 56.4275 49.5281 56.8316 49.6311 57.132C49.7389 57.4428 49.8842 57.5878 50.0669 57.5878C50.2637 57.5878 50.4558 57.4427 50.6385 57.1423C50.8212 56.8419 51.2289 56.0132 51.8614 54.6664C51.913 53.7548 51.9879 52.8743 52.091 52.0144C52.2972 50.2534 52.6298 48.2851 53.089 46.0785L55.1084 45.2187C54.682 47.7464 54.4056 49.7354 54.2744 51.1857C55.1787 48.9481 55.9002 47.4045 56.4297 46.5447C56.9592 45.6849 57.4324 45.2601 57.8494 45.2601C58.1305 45.2601 58.3648 45.4984 58.5522 45.9646C58.7396 46.4307 58.8333 47.0212 58.8333 47.7257C58.8333 48.8963 58.5944 50.8231 58.1211 53.5062C57.7932 55.3502 57.6339 56.5415 57.6339 57.0905C57.6339 57.8261 57.7697 58.1886 58.0415 58.1886C58.4444 58.1886 59.1004 57.0077 60 54.6561L59.9813 54.6664Z" fill="#2357FF"/>
</svg>
