<svg width="75" height="30" viewBox="0 0 75 30" fill="none" xmlns="http://www.w3.org/2000/svg">
<path d="M8.94028 0C11.2918 6.76418e-05 13.5486 1.54312 15.2219 4.29492C16.8953 7.04673 17.8503 10.7857 17.8803 14.702L17.8808 14.8911L17.8801 15.0804C17.8576 18.0092 17.3171 20.8619 16.3262 23.2815C15.3352 25.7012 13.9379 27.5805 12.3089 28.6841C10.68 29.7878 8.89183 30.0668 7.16816 29.4864C5.44449 28.9059 3.86185 27.4918 2.61828 25.4208C1.36804 23.3382 0.516642 20.6848 0.171738 17.7963C-0.173165 14.9077 0.00391656 11.9137 0.680593 9.1928C1.35727 6.47187 2.50315 4.14624 3.97335 2.50994C5.44355 0.873652 7.17205 0.000190048 8.94028 0ZM8.94028 0.488937C7.23012 0.489103 5.55839 1.33387 4.13647 2.91642C2.71455 4.49898 1.6063 6.74824 0.95185 9.37982C0.297403 12.0114 0.126149 14.9071 0.459743 17.7008C0.793337 20.4944 1.6168 23.0606 2.826 25.0748C4.02872 27.0778 5.55937 28.4456 7.22644 29.007C8.89351 29.5684 10.623 29.2985 12.1984 28.2311C13.7738 27.1637 15.1253 25.3461 16.0837 23.0059C17.0421 20.6657 17.5648 17.9067 17.5866 15.0741L17.5873 14.8911L17.5866 14.7081C17.5577 10.9204 16.634 7.30421 15.0156 4.64276C13.3973 1.98132 11.2146 0.488952 8.94028 0.488937ZM22.5691 13.1466C23.088 13.1466 23.569 13.3145 24.012 13.6502C24.4566 13.9833 24.8012 14.5559 25.0457 15.3678L24.1086 16.3962C23.9501 15.8871 23.7385 15.4824 23.4741 15.1822C23.2095 14.8821 22.8873 14.7321 22.5073 14.7323C22.3271 14.7323 22.1444 14.7681 21.9593 14.8396C21.7742 14.9084 21.6073 15.0185 21.4584 15.17C21.3156 15.3117 21.1936 15.505 21.1015 15.7355C21.0121 15.964 20.9675 16.2463 20.9676 16.5821C20.9676 17.1628 21.0891 17.5853 21.332 17.8496C21.575 18.1139 21.9402 18.3438 22.4277 18.5393L23.4889 18.9605C24.0079 19.1532 24.4393 19.5454 24.7829 20.1372C25.1267 20.7263 25.2985 21.4613 25.2985 22.3423C25.2985 23.0113 25.2168 23.5879 25.0532 24.0723C24.8945 24.548 24.6713 24.9552 24.4013 25.2615C24.1318 25.5697 23.8227 25.7941 23.4741 25.9346C23.1253 26.0778 22.7708 26.1493 22.4104 26.1493C21.8401 26.1493 21.3088 25.969 20.8164 25.6084C20.3239 25.2449 19.9033 24.6228 19.5544 23.742L20.4594 22.7138C20.6709 23.2783 20.9378 23.7283 21.2601 24.064C21.5824 24.3972 21.9658 24.5637 22.4104 24.5637C22.622 24.5637 22.8335 24.5239 23.0452 24.4442C23.2567 24.3641 23.4442 24.2416 23.6078 24.0765C23.769 23.9157 23.9049 23.6936 24.0045 23.4282C24.1054 23.1639 24.1558 22.8556 24.1558 22.5033C24.1558 21.8867 24.0178 21.4421 23.7417 21.1695C23.4674 20.8942 23.1352 20.6782 22.7452 20.5212L21.7286 20.125C21.6014 20.0698 21.4295 19.9817 21.2129 19.8605C20.9965 19.7369 20.785 19.5525 20.5784 19.3074C20.3718 19.0595 20.1941 18.7375 20.0453 18.3412C19.8982 17.9447 19.8247 17.4546 19.8247 16.871C19.8247 16.238 19.9016 15.6833 20.0553 15.2071C20.209 14.7308 20.4147 14.344 20.6726 14.0467C20.932 13.7466 21.2254 13.5223 21.5526 13.3738C21.8816 13.2224 22.2204 13.1466 22.5691 13.1466ZM30.2978 13.1466C30.8579 13.1466 31.3596 13.3145 31.8026 13.6502C32.2473 13.9835 32.6199 14.4281 32.9206 14.9841C33.2231 15.5374 33.4537 16.1884 33.6123 16.9371C33.7709 17.6858 33.8502 18.4841 33.8503 19.332V20.125H27.6624C27.6915 20.7274 27.783 21.3169 27.9326 21.8675C28.0813 22.4124 28.2771 22.8831 28.5202 23.2796C28.7634 23.6764 29.0482 23.9954 29.3606 24.2209C29.678 24.4494 30.0217 24.5637 30.3918 24.5637C30.9523 24.5637 31.4357 24.3476 31.8422 23.9155C32.2504 23.4833 32.5603 22.985 32.7719 22.4206L33.5801 23.5314C33.1371 24.4646 32.6479 25.1349 32.1124 25.5423C31.5785 25.947 31.0051 26.1493 30.392 26.1493C29.8416 26.1493 29.3308 25.9869 28.8597 25.6621C28.3904 25.3345 27.9863 24.8803 27.6476 24.2995C27.3087 23.7188 27.0409 23.032 26.8443 22.2391C26.6492 21.4463 26.5517 20.5819 26.5517 19.6458C26.5517 18.7127 26.6467 17.8497 26.8368 17.0569C27.0287 16.264 27.2931 15.5772 27.6301 14.9965C27.969 14.4158 28.3657 13.963 28.8202 13.638C29.2762 13.3104 29.7688 13.1466 30.2978 13.1466ZM38.8493 13.1466C39.2079 13.1466 39.5541 13.2347 39.888 13.4109C40.2219 13.587 40.5103 13.8554 40.7533 14.216C40.9963 14.5766 41.1913 15.0308 41.3384 15.5786C41.4871 16.1235 41.5614 16.7746 41.5614 17.5317V23.0566C41.5614 23.5329 41.5746 24.0311 41.601 24.5513C41.6276 25.0688 41.6565 25.4956 41.6879 25.8314H40.6739C40.6408 25.5073 40.6168 25.1807 40.6021 24.8528C40.5858 24.5108 40.5775 24.1678 40.5772 23.8247H40.5475C40.2401 24.6505 39.8773 25.245 39.4591 25.6082C39.041 25.969 38.5312 26.1493 37.9295 26.1493C37.6006 26.1493 37.2824 26.0737 36.975 25.9224C36.6693 25.7736 36.3975 25.5451 36.1594 25.2369C35.9221 24.9305 35.7269 24.5434 35.5866 24.1014C35.4445 23.6524 35.3735 23.128 35.3735 22.5279C35.3735 21.5232 35.5297 20.7346 35.8421 20.1621C36.1545 19.5895 36.5454 19.1628 37.0147 18.8819C37.4858 18.5984 37.9882 18.4222 38.522 18.3534C39.0575 18.2819 39.5475 18.2461 39.9922 18.2461H40.5153V17.9282C40.5153 15.7974 39.8806 14.732 38.6112 14.732C37.7436 14.732 36.9875 15.2166 36.3429 16.1857L35.7082 14.9428C36.4057 13.7454 37.4527 13.1466 38.8493 13.1466ZM45.0362 5.85456V15.525H45.0684C45.2316 15.1109 45.4352 14.7453 45.6708 14.4432C45.9039 14.1431 46.1469 13.8966 46.3997 13.7039C46.6506 13.5105 46.9144 13.3678 47.1856 13.2786C47.4566 13.1908 47.7136 13.1468 47.9567 13.1466C48.5384 13.1466 49.0698 13.3104 49.5507 13.638C50.0317 13.9628 50.4465 14.4157 50.7953 14.9965C51.1456 15.5772 51.4183 16.264 51.6134 17.0569C51.8084 17.8497 51.9059 18.7127 51.9059 19.6458C51.9059 20.5819 51.8084 21.4463 51.6134 22.2391C51.4184 23.0318 51.1457 23.7186 50.7953 24.2995C50.4466 24.8802 50.0318 25.3344 49.5507 25.6621C49.0699 25.9869 48.5385 26.1493 47.9567 26.1493C47.7137 26.1493 47.4567 26.1053 47.1856 26.0171C46.9147 25.9282 46.6509 25.7869 46.3997 25.596C46.1408 25.3946 45.8962 25.1453 45.6708 24.8528C45.4359 24.5494 45.2325 24.1839 45.0684 23.771H45.0362V25.8314H43.99V5.85431L45.0362 5.85456ZM57.2369 13.1466C57.8188 13.1466 58.3502 13.3104 58.8311 13.638C59.3137 13.9628 59.7293 14.4157 60.0782 14.9965C60.4268 15.5772 60.6987 16.264 60.8938 17.0569C61.0905 17.8497 61.1888 18.7127 61.1888 19.6458C61.1888 20.5819 61.0905 21.4463 60.8938 22.2391C60.6987 23.0318 60.4268 23.7186 60.0782 24.2995C59.7293 24.8802 59.3137 25.3344 58.8311 25.6621C58.3503 25.9869 57.8189 26.1493 57.2371 26.1493C56.6668 26.1493 56.1404 25.9869 55.6578 25.6621C55.177 25.3345 54.7621 24.8803 54.4133 24.2995C54.0647 23.7188 53.792 23.032 53.5952 22.2391C53.4002 21.4463 53.3027 20.5819 53.3027 19.6458C53.3027 18.7127 53.4002 17.8497 53.5952 17.0569C53.7919 16.264 54.0646 15.5772 54.4133 14.9965C54.7619 14.4158 55.1768 13.963 55.6578 13.638C56.1404 13.3104 56.6667 13.1466 57.2369 13.1466ZM66.5839 13.1466C66.8798 13.1466 67.1384 13.1989 67.3598 13.3035L67.1541 15.0211C67.0169 14.9333 66.8161 14.8893 66.5516 14.8892C66.15 14.8892 65.8062 15.0172 65.5204 15.2732C65.2344 15.5292 64.9964 15.8553 64.8063 16.2515C64.6163 16.6481 64.4758 17.0762 64.3848 17.5359C64.2956 17.9929 64.2509 18.432 64.2509 18.8531V25.8314H63.2047V17.3211C63.2046 16.7662 63.1964 16.2114 63.18 15.6572C63.1634 15.0928 63.1502 14.3619 63.1404 13.4645H64.1717V15.7646H64.2039C64.2816 15.419 64.3884 15.0937 64.5212 14.7984C64.6625 14.4833 64.8304 14.2038 65.0195 13.9684C65.2162 13.7205 65.4435 13.5223 65.7013 13.3738C65.9609 13.2224 66.255 13.1466 66.5839 13.1466ZM72.2086 13.1466C73.1606 13.1466 73.8639 13.5651 74.3183 14.4019C74.7728 15.2386 75 16.4319 75 17.9818V25.8314H73.9538V18.9853C73.9538 17.6117 73.8108 16.5602 73.5249 15.8307C73.2391 15.0982 72.7102 14.7321 71.9383 14.7323C71.8856 14.7323 71.7376 14.7681 71.4945 14.8396C71.2516 14.9084 70.9946 15.1025 70.7235 15.4218C70.4542 15.7383 70.2137 16.2132 70.0021 16.8464C69.7906 17.4794 69.6848 18.3603 69.6848 19.4889V25.8314H68.6386V16.1857C68.6386 15.8498 68.6303 15.4272 68.6137 14.9179C68.5999 14.4331 68.5817 13.9485 68.5592 13.4645H69.6376C69.6589 13.7939 69.6722 14.1245 69.6773 14.4556C69.6822 14.7804 69.6846 15.1107 69.6846 15.4464H69.7169C69.8326 15.1107 69.9805 14.8025 70.1607 14.5217C70.3418 14.2369 70.5443 13.9925 70.7632 13.7947C70.9867 13.5909 71.2239 13.4316 71.4697 13.3201C71.7101 13.2067 71.9587 13.1484 72.2086 13.1466ZM40.5151 19.6746H39.9746C39.7102 19.6746 39.3797 19.6965 38.9829 19.7405C38.5863 19.7847 38.2054 19.8907 37.8401 20.0586C37.4765 20.2237 37.1649 20.4825 36.9056 20.835C36.646 21.1873 36.5162 21.6717 36.5162 22.2883C36.5162 22.6958 36.5667 23.0454 36.6675 23.3372C36.7667 23.6236 36.9052 23.8669 37.0715 24.0472C37.2435 24.234 37.4341 24.3682 37.6343 24.4437C37.8409 24.5234 38.05 24.5633 38.2616 24.5635C38.6417 24.5635 38.9722 24.4575 39.2533 24.2456C39.5343 24.0336 39.7698 23.7473 39.9598 23.3867C40.1497 23.0261 40.2894 22.6036 40.3787 22.119C40.4696 21.6345 40.515 21.1183 40.5151 20.5705V19.6746ZM47.9565 14.732C47.5218 14.732 47.1243 14.86 46.764 15.1161C46.4054 15.3719 46.0939 15.7201 45.8294 16.1605C45.5649 16.6012 45.3583 17.1215 45.2097 17.7215C45.0625 18.3188 44.9889 18.9601 44.9889 19.6455C44.9889 20.3339 45.0625 20.978 45.2097 21.5779C45.3583 22.1755 45.5648 22.6944 45.8293 23.1347C46.0938 23.5753 46.4054 23.9236 46.764 24.1794C47.1244 24.4356 47.5218 24.5636 47.9564 24.5635C48.3895 24.5635 48.7779 24.4355 49.1217 24.1794C49.4654 23.9234 49.7588 23.5752 50.0018 23.1347C50.2464 22.6942 50.4348 22.1754 50.567 21.5781C50.6992 20.9779 50.7653 20.3338 50.7654 19.6458C50.7654 18.9602 50.6993 18.3188 50.567 17.7215C50.4347 17.1213 50.2463 16.601 50.0018 16.1605C49.7588 15.7201 49.4654 15.3719 49.1217 15.1161C48.7779 14.8599 48.3895 14.7319 47.9565 14.732ZM57.2369 14.732C56.8038 14.732 56.4154 14.86 56.0717 15.1161C55.7279 15.3719 55.437 15.7201 55.199 16.1605C54.961 16.6012 54.7759 17.1215 54.6437 17.7215C54.5115 18.3188 54.4454 18.9601 54.4454 19.6455C54.4454 20.3339 54.5115 20.978 54.6437 21.5779C54.7759 22.1755 54.9609 22.6944 55.1989 23.1347C55.437 23.5753 55.7279 23.9236 56.0717 24.1794C56.4154 24.4356 56.8038 24.5636 57.2369 24.5635C57.6715 24.5635 58.0607 24.4355 58.4044 24.1794C58.7483 23.9234 59.0417 23.5752 59.2847 23.1347C59.5276 22.6942 59.7152 22.1754 59.8475 21.5781C59.9796 20.9779 60.0457 20.3338 60.0458 19.6458C60.0458 18.9602 59.9797 18.3188 59.8475 17.7215C59.7152 17.1213 59.5276 16.601 59.2847 16.1605C59.0417 15.7201 58.7483 15.3719 58.4046 15.1161C58.0608 14.8602 57.6716 14.7322 57.2369 14.732ZM30.2976 14.732C29.9588 14.7319 29.6306 14.842 29.3133 15.0624C28.996 15.2824 28.7183 15.5783 28.4803 15.95C28.2455 16.3122 28.0515 16.7416 27.9076 17.2177C27.7655 17.691 27.6945 18.1838 27.6945 18.696H32.7072C32.7072 17.5151 32.4956 16.5598 32.0726 15.8302C31.6495 15.0982 31.0579 14.7322 30.2976 14.732Z" fill="#2357FF"/>
</svg>
